<svg width="18" height="16" viewBox="0 0 18 16" fill="none" xmlns="http://www.w3.org/2000/svg">
<path d="M8.875 3.625C8.875 3.625 8.875 3.625 8.21 2.75C7.44 1.735 6.3025 1 4.9375 1C2.75875 1 1 2.75875 1 4.9375C1 5.75125 1.245 6.50375 1.665 7.125C2.37375 8.18375 8.875 15 8.875 15M8.875 3.625C8.875 3.625 8.875 3.625 9.54 2.75C10.31 1.735 11.4475 1 12.8125 1C14.9913 1 16.75 2.75875 16.75 4.9375C16.75 5.75125 16.505 6.50375 16.085 7.125C15.3762 8.18375 8.875 15 8.875 15" stroke="#BD5454" stroke-width="2" stroke-linecap="round" stroke-linejoin="round"/>
</svg>
