<svg xmlns="http://www.w3.org/2000/svg" width="14" height="14" fill="none" viewBox="0 0 14 14"><path fill="#1e1e1e" d="M6.66667 0c.88405 0 1.7319.351189 2.35702.976311C9.64881 1.60143 10 2.44928 10 3.33333c0 .88406-.35119 1.7319-.97631 2.35703-.62512.62512-1.47297.97631-2.35702.97631-.88406 0-1.73191-.35119-2.35703-.97631-.62512-.62513-.97631-1.47297-.97631-2.35703 0-.88405.35119-1.7319.97631-2.357019C4.93476.351189 5.78261 0 6.66667 0m0 8.33333c3.68333 0 6.66663 1.49167 6.66663 3.33337v1.6666H0v-1.6666C0 9.825 2.98333 8.33333 6.66667 8.33333"/></svg>