<svg xmlns="http://www.w3.org/2000/svg" width="17" height="17" fill="none" viewBox="0 0 17 17"><path fill="#1e1e1e" d="M13.3333 13.3333c.4421 0 .866.1756 1.1785.4882C14.8244 14.134 15 14.558 15 15s-.1756.8659-.4882 1.1785c-.3125.3126-.7364.4882-1.1785.4882-.442 0-.8659-.1756-1.1785-.4882-.3125-.3126-.4881-.7365-.4881-1.1785 0-.925.7416-1.6667 1.6666-1.6667M0 0h2.725l.78333 1.66667H15.8333c.221 0 .433.08779.5893.24407s.2441.36825.2441.58926c0 .14167-.0417.28333-.1.41667l-2.9834 5.39166c-.2833.50834-.8333.85834-1.4583.85834H5.91667l-.75 1.35833-.025.1c0 .0553.02195.1082.06102.1473s.09206.061.14731.061H15V12.5H5c-.44203 0-.86595-.1756-1.17851-.4882-.31256-.3125-.48816-.7364-.48816-1.1785 0-.2916.075-.5666.2-.8l1.13334-2.04163-3-6.325H0zm5 13.3333c.44203 0 .86595.1756 1.17851.4882.31256.3125.48816.7365.48816 1.1785s-.1756.8659-.48816 1.1785-.73648.4882-1.17851.4882-.86595-.1756-1.17851-.4882S3.33333 15.442 3.33333 15c0-.925.74167-1.6667 1.66667-1.6667M12.5 7.5l2.3167-4.16667H4.28333L6.25 7.5z"/></svg>